<svg viewBox="0 0 1184.84 391.67" width="1184.84" height="391.67" xmlns="http://www.w3.org/2000/svg"><g transform="translate(-3.59 -2.26)"><path d="m73.94 174.19a29.12 29.12 0 0 1 1.73 3.07 36.38 36.38 0 0 0 7.67 11.24c3.36 3.46 6.89 6.76 10.48 10a54.43 54.43 0 0 0 23 12.36c1.91.49 4 .47 5.85 1 4.42 1.2 8.87.44 13.15-.16 3.85-.54 7.51-2.53 11.23-4a32.78 32.78 0 0 0 3.54-1.81 86.82 86.82 0 0 0 13.59-9.25c9.8-7.74 16.88-17.57 22.67-28.47a38 38 0 0 0 3.75-12.93c.31-2.24 0-5 2.36-6.63a2.73 2.73 0 0 1 1.19-.66c1.68-.07 3.37-.08 5.06 0a4.37 4.37 0 0 1 4.19 3.59 51.62 51.62 0 0 1 .21 7.25 25 25 0 0 1 -.55 4.65 26 26 0 0 1 -1.34 4.32 47.12 47.12 0 0 1 -3.09 6.82c-2.43 4-4.15 8.45-7.21 12.08-.54.65-1 1.4-1.51 2.05-3.29 3.89-6.43 7.92-9.95 11.6a63.71 63.71 0 0 1 -12.92 10.78c-3.36 2-6.49 4.47-9.93 6.33a69.31 69.31 0 0 1 -8.4 3.28c-2.72 1-5.44 2-8.18 3a5.25 5.25 0 0 1 -2.51.4 11.34 11.34 0 0 0 -5.84.8c-1.71.62-3.43-.2-4.92.19a17.48 17.48 0 0 1 -5.32.32 51.19 51.19 0 0 1 -17.94-4.27 47.08 47.08 0 0 1 -17-11.59 89.53 89.53 0 0 1 -12.34-16.63c-2.27-4-3.17-8.28-4-12.64a10.48 10.48 0 0 1 0-2.85 3.21 3.21 0 0 1 3.28-3.24z" fill="#28348a"/><path d="m146.34 145.72c-.91-1.43-1.65-2.87-1.26-4.65a2.41 2.41 0 0 0 -.2-1.31 29.74 29.74 0 0 1 -2-12.83c.09-1.79-.29-3.6-.12-5.37.45-4.69 1.65-9.1 5.5-12.32a2.65 2.65 0 0 1 3-.43 16.46 16.46 0 0 0 3.36 1c2.23.41 3.61 1.59 3.78 3.88a47 47 0 0 1 .13 5.69c-.11 3-.74 6 .32 9a6.57 6.57 0 0 1 .24 1.35c.26 2 0 4.11.7 6.14a3.69 3.69 0 0 1 -.3 3.13 9.39 9.39 0 0 0 -.67 3.91c-.14 2.15-.71 2.89-2.84 3.33a23.64 23.64 0 0 1 -7.51-.11 21.54 21.54 0 0 1 -2.13-.41z" fill="#28348a"/><path d="m105.9 128c.4 1.88.77 3.76 1.22 5.63 1.12 4.67 2.29 9.32 3.43 14a4.88 4.88 0 0 1 -2.77 4.95 17.76 17.76 0 0 0 -3 1.39 3.35 3.35 0 0 1 -4.46-.68 12.28 12.28 0 0 1 -3.26-5.47 63.63 63.63 0 0 1 -2.29-15.91c-.07-2.37-.3-4.74-.19-7.1a21.77 21.77 0 0 1 .94-5 2.16 2.16 0 0 1 1.88-1.81 8.75 8.75 0 0 0 2.29-.74 3 3 0 0 1 4.27 1.52 29.56 29.56 0 0 1 1.49 4.88c.34 1.4.48 2.85.71 4.28z" fill="#28348a"/><path d="m433.71 93.81a39.67 39.67 0 0 1 -16.58 15.65q-11.13 5.88-27.13 5.87h-18v44.34h-36.56v-131.34h54.56q15.83 0 26.91 5.59a38.5 38.5 0 0 1 16.68 15.46 45.42 45.42 0 0 1 5.59 22.73 43.56 43.56 0 0 1 -5.47 21.7zm-31.71-21.7q0-14.34-15.46-14.34h-14.54v28.5h14.54q15.4 0 15.46-14.16z" fill="#009eff"/><path d="m453.83 79a44.63 44.63 0 0 1 16-18.63 41.06 41.06 0 0 1 22.64-6.52q10.8 0 18.62 4.29a31 31 0 0 1 12.11 11.55v-14.53h36.52v104.51h-36.5v-14.53a30.84 30.84 0 0 1 -12.22 11.55 38.33 38.33 0 0 1 -18.51 4.31 41 41 0 0 1 -22.64-6.52 44.41 44.41 0 0 1 -16-18.72q-5.85-12.22-5.85-28.44t5.83-28.32zm63.9 12.49a18.9 18.9 0 0 0 -27.11-.1q-5.4 5.69-5.4 15.93 0 10.07 5.4 15.93a17.71 17.71 0 0 0 13.6 5.87 17.94 17.94 0 0 0 13.51-5.78q5.49-5.76 5.49-16 0-10.08-5.49-15.85z" fill="#009eff"/><path d="m677.66 66.24q10.62 12 10.62 32.51v60.92h-36.51v-56.07q0-9-4.66-14.07c-3.11-3.41-7.26-5.12-12.48-5.12q-8.21 0-12.86 5.12t-4.65 14.07v56.07h-36.52v-104.51h36.52v14.9a36 36 0 0 1 13-11.46 39.38 39.38 0 0 1 18.88-4.37q18 0 28.66 12.01z" fill="#009eff"/><path d="m805.46 66.24q10.62 12 10.62 32.51v60.92h-36.51v-56.07q0-9-4.66-14.07t-12.48-5.12q-8.2 0-12.86 5.12t-4.65 14.07v56.07h-36.52v-104.51h36.52v14.9a35.92 35.92 0 0 1 13.08-11.46 39.38 39.38 0 0 1 18.81-4.37q18.04 0 28.65 12.01z" fill="#009eff"/><path d="m934.21 114.77h-69.12q.57 8.58 4.76 12.76a14.47 14.47 0 0 0 10.71 4.2q9.12 0 13-8.2h38.93a45.59 45.59 0 0 1 -9.4 19.28 48.56 48.56 0 0 1 -17.61 13.32 55.87 55.87 0 0 1 -23.43 4.87q-15.46 0-27.48-6.52a46.77 46.77 0 0 1 -18.82-18.62q-6.75-12.15-6.75-28.54t6.71-28.41a46.4 46.4 0 0 1 18.72-18.54q12-6.51 27.67-6.52 15.45 0 27.38 6.34a45.62 45.62 0 0 1 18.63 18.16q6.71 11.84 6.71 27.85a66.54 66.54 0 0 1 -.61 8.57zm-36.7-17.7q0-6.7-4.47-10.52a16.6 16.6 0 0 0 -11.18-3.82 16.4 16.4 0 0 0 -11 3.63c-2.86 2.42-4.72 6-5.59 10.71z" fill="#009eff"/><path d="m954.72 79a44.63 44.63 0 0 1 16-18.63 41.05 41.05 0 0 1 22.63-6.52q10.82 0 18.63 4.29a31 31 0 0 1 12.11 11.55v-14.53h36.52v104.51h-36.52v-14.53a30.84 30.84 0 0 1 -12.2 11.55 38.34 38.34 0 0 1 -18.52 4.31 41 41 0 0 1 -22.63-6.52 44.41 44.41 0 0 1 -16-18.72q-5.88-12.19-5.87-28.41t5.85-28.35zm63.9 12.49a18.9 18.9 0 0 0 -27.11-.1q-5.4 5.69-5.4 15.93 0 10.07 5.4 15.93a17.7 17.7 0 0 0 13.6 5.87 17.94 17.94 0 0 0 13.51-5.78q5.49-5.76 5.49-16 0-10.08-5.49-15.85z" fill="#009eff"/><path d="m1188.43 55.16v104.51h-36.7v-14.9a34.36 34.36 0 0 1 -12.86 11.45 39.33 39.33 0 0 1 -18.81 4.38q-18.27 0-28.79-12t-10.52-32.7v-60.74h36.32v56.07q0 9 4.75 14.07t12.58 5.12q8 0 12.67-5.12t4.66-14.07v-56.07z" fill="#009eff"/><path d="m433.71 277.81a39.67 39.67 0 0 1 -16.58 15.65q-11.13 5.87-27.13 5.87h-18v44.34h-36.56v-131.34h54.56q15.83 0 26.91 5.59a38.44 38.44 0 0 1 16.68 15.46 45.4 45.4 0 0 1 5.59 22.73 43.56 43.56 0 0 1 -5.47 21.7zm-31.71-21.7q0-14.36-15.46-14.35h-14.54v28.51h14.54q15.4 0 15.46-14.16z" fill="#28348a"/><path d="m474.51 338.45a48.1 48.1 0 0 1 -19.51-18.63q-7.08-12.1-7.08-28.5 0-16.21 7.17-28.32a48.7 48.7 0 0 1 19.56-18.63 63.55 63.55 0 0 1 56.08 0 48.7 48.7 0 0 1 19.6 18.63q7.17 12.11 7.17 28.32t-7.17 28.41a48.38 48.38 0 0 1 -19.65 18.72 63.75 63.75 0 0 1 -56.17 0zm40.8-30.83q5.12-5.69 5.12-16.3t-5.12-16.21a16.4 16.4 0 0 0 -12.58-5.59 16.09 16.09 0 0 0 -12.48 5.59q-5 5.58-5 16.21 0 10.8 4.84 16.39a15.75 15.75 0 0 0 12.49 5.59 16.48 16.48 0 0 0 12.73-5.68z" fill="#28348a"/><path d="m575.72 263a46.25 46.25 0 0 1 18.72-18.63q12-6.52 27.48-6.52 19.94 0 33.53 10.9t17.55 30.46h-38.78q-3.36-10.24-13-10.25a12.66 12.66 0 0 0 -10.9 5.68q-4 5.69-4 16.68t4 16.76a12.59 12.59 0 0 0 10.9 5.78q9.87 0 13-10.25h38.78q-3.94 19.39-17.55 30.39t-33.53 11q-15.46 0-27.48-6.52a46.25 46.25 0 0 1 -18.72-18.63q-6.71-12.1-6.71-28.5-.01-16.24 6.71-28.35z" fill="#28348a"/><path d="m753.44 343.67-28.87-42.85v42.85h-36.52v-137.86h36.52v74.33l28.87-41h43.78l-41.17 52.54 41.92 52z" fill="#28348a"/><path d="m901 298.77h-69.08q.55 8.57 4.75 12.76a14.51 14.51 0 0 0 10.71 4.19q9.12 0 13-8.2h38.94a45.59 45.59 0 0 1 -9.32 19.29 48.56 48.56 0 0 1 -17.61 13.32 55.87 55.87 0 0 1 -23.52 4.87q-15.47 0-27.48-6.52a46.92 46.92 0 0 1 -18.82-18.63q-6.8-12.1-6.8-28.5t6.71-28.41a46.4 46.4 0 0 1 18.72-18.54q12-6.52 27.67-6.52 15.46 0 27.38 6.33a45.65 45.65 0 0 1 18.63 18.17q6.72 11.83 6.71 27.85a64.91 64.91 0 0 1 -.59 8.54zm-36.7-17.7q0-6.7-4.47-10.53a16.64 16.64 0 0 0 -11.18-3.81 16.42 16.42 0 0 0 -11 3.63q-4.29 3.63-5.59 10.71z" fill="#28348a"/><path d="m978.16 312.55v31.12h-15.84q-40.05 0-40.05-39.69v-34.46h-12.85v-30.37h12.85v-25.33h36.73v25.33h19v30.37h-19v35q0 4.29 2 6.15t6.61 1.86z" fill="#28348a"/><path d="m228.2 28.33h-181.4a43.22 43.22 0 0 0 -43.21 43.21v181.4a43.22 43.22 0 0 0 43.21 43.21h29.36a21.28 21.28 0 0 1 15 6.22l38.35 38.36a11.26 11.26 0 0 0 15.91 0l38.36-38.36a21.26 21.26 0 0 1 15-6.22h29.42a43.22 43.22 0 0 0 43.21-43.21v-181.4a43.22 43.22 0 0 0 -43.21-43.21zm-18.8 209.49h-143.81a3.42 3.42 0 0 1 -3.42-3.42v-143.35a3.42 3.42 0 0 1 3.42-3.42h143.81a3.42 3.42 0 0 1 3.42 3.42v143.35a3.42 3.42 0 0 1 -3.42 3.42z" fill="#009eff"/></g><ellipse cx="133.91" cy="380.21" fill="#c6c6c6" rx="69.15" ry="11.46"/><circle cx="238.87" cy="54.42" fill="#ee4f38" r="54.42"/><path d="m227.89 40v-13h22.53v59.42h-14.42v-46.42z" fill="#fff" transform="translate(-3.59 -2.26)"/></svg>